<?xml version='1.0' encoding='utf-8'?>
<!DOCTYPE svg PUBLIC '-//W3C//DTD SVG 1.1//EN' 'http://www.w3.org/Graphics/SVG/1.1/DTD/svg11.dtd'>
<!-- Uploaded to: SVG Repo, www.svgrepo.com, Generator: SVG Repo Mixer Tools -->
<svg fill="#0BB90B" height="800px" width="800px" version="1.1" xmlns="http://www.w3.org/2000/svg" viewBox="0 0 512 512" xmlns:xlink="http://www.w3.org/1999/xlink" enable-background="new 0 0 512 512">
  <g>
    <g>
      <path d="m195.6,310.8l137.8-95.9c4.9-2.9 11.9-14.7 0-24.6l-137.8-96c-7.4-5.4-22.5-2.7-23.6,12.3v191.9c0.9,17.7 18.2,16.7 23.6,12.3zm6.4-175.5l96.6,67.2-96.6,67.2v-134.4z"/>
      <path d="M480.6,11H31.4C20.1,11,11,20.1,11,31.4v342.4c0,11.3,9.1,20.4,20.4,20.4h449.2c11.3,0,20.4-9.1,20.4-20.4V31.4    C501,20.1,491.9,11,480.6,11z M460.2,353.4H51.8V51.8h408.3V353.4z"/>
      <path d="m480.6,460.2h-449.2c-11.3,0-20.4,9.1-20.4,20.4 0,11.3 9.1,20.4 20.4,20.4h449.2c11.3,0 20.4-9.1 20.4-20.4 5.68434e-14-11.3-9.1-20.4-20.4-20.4z"/>
    </g>
  </g>
</svg>